<svg width="18" height="18" viewBox="0 0 18 18" fill="none" xmlns="http://www.w3.org/2000/svg">
<path d="M16.7344 5.81691C16.6817 5.75678 16.6169 5.70856 16.5441 5.67546C16.4714 5.64236 16.3924 5.62514 16.3125 5.62495H13.4479C13.2858 5.62495 13.1315 5.55496 13.0247 5.43294L9.42188 1.31691C9.3691 1.25705 9.30418 1.20912 9.23144 1.17628C9.1587 1.14345 9.07981 1.12646 9.00001 1.12646C8.9202 1.12646 8.84131 1.14345 8.76857 1.17628C8.69584 1.20912 8.63092 1.25705 8.57813 1.31691L4.97535 5.43293C4.86854 5.55496 4.71426 5.62495 4.55209 5.62495H1.68751C1.60734 5.62495 1.5281 5.64208 1.45509 5.6752C1.38209 5.70831 1.317 5.75665 1.2642 5.81698C1.2114 5.8773 1.17211 5.94821 1.14895 6.02496C1.12579 6.10171 1.11931 6.18252 1.12993 6.26198L2.18954 14.2115C2.2265 14.4813 2.35971 14.7287 2.56463 14.908C2.76956 15.0873 3.03238 15.1866 3.30469 15.1875H14.6953C14.9676 15.1866 15.2305 15.0873 15.4354 14.908C15.6403 14.7287 15.7735 14.4813 15.8105 14.2115L16.8701 6.26198C16.8805 6.18241 16.8738 6.10152 16.8504 6.02476C16.827 5.94799 16.7874 5.87712 16.7344 5.81691ZM5.73751 12.9375C5.71854 12.9385 5.69952 12.9385 5.68055 12.9375C5.54062 12.9382 5.40545 12.8867 5.30144 12.7931C5.19743 12.6995 5.13205 12.5704 5.11805 12.4312L4.7243 8.4937C4.70939 8.34526 4.75405 8.19698 4.84846 8.08147C4.94287 7.96596 5.0793 7.89268 5.22774 7.87777C5.37618 7.86285 5.52446 7.90751 5.63998 8.00192C5.75549 8.09633 5.82876 8.23276 5.84368 8.3812L6.23743 12.3187C6.25318 12.467 6.20936 12.6156 6.11561 12.7316C6.02186 12.8476 5.88585 12.9217 5.73751 12.9375ZM9.56251 12.375C9.56251 12.5241 9.50324 12.6672 9.39775 12.7727C9.29227 12.8782 9.14919 12.9375 9.00001 12.9375C8.85082 12.9375 8.70775 12.8782 8.60226 12.7727C8.49677 12.6672 8.43751 12.5241 8.43751 12.375V8.43745C8.43751 8.28827 8.49677 8.14519 8.60226 8.03971C8.70775 7.93422 8.85082 7.87495 9.00001 7.87495C9.14919 7.87495 9.29227 7.93422 9.39775 8.03971C9.50324 8.14519 9.56251 8.28827 9.56251 8.43745V12.375ZM7.54176 5.62495C7.05848 5.62495 6.8002 5.05574 7.11844 4.69204L8.57669 3.02553C8.80079 2.76941 9.19922 2.76941 9.42333 3.02553L10.8816 4.69204C11.1998 5.05574 10.9415 5.62495 10.4583 5.62495H7.54176ZM13.2722 8.4937L12.8784 12.4312C12.8645 12.5698 12.7996 12.6984 12.6964 12.7919C12.5931 12.8854 12.4588 12.9373 12.3195 12.9375C12.3005 12.9385 12.2815 12.9385 12.2625 12.9375C12.189 12.9301 12.1177 12.9083 12.0526 12.8733C11.9875 12.8384 11.93 12.7909 11.8832 12.7338C11.8365 12.6766 11.8014 12.6107 11.7801 12.54C11.7588 12.4693 11.7517 12.395 11.7591 12.3215L12.1528 8.38402C12.1677 8.23558 12.241 8.09914 12.3565 8.00473C12.472 7.91032 12.6203 7.86566 12.7688 7.88058C12.9172 7.8955 13.0536 7.96877 13.148 8.08428C13.2425 8.19979 13.2871 8.34808 13.2722 8.49652V8.4937Z" fill="#FFDD00"/>
</svg>
